<?xml version="1.0" encoding="utf-8"?>
<!-- Generator: Adobe Illustrator 17.0.0, SVG Export Plug-In . SVG Version: 6.00 Build 0)  -->
<!DOCTYPE svg PUBLIC "-//W3C//DTD SVG 1.1//EN" "http://www.w3.org/Graphics/SVG/1.1/DTD/svg11.dtd">
<svg version="1.1" id="GLYPHICONS.com" xmlns="http://www.w3.org/2000/svg" xmlns:xlink="http://www.w3.org/1999/xlink" x="0px"
	 y="0px" width="66px" height="19px" viewBox="0 0 66 19" enable-background="new 0 0 66 19" xml:space="preserve">
<g>
	<g>
		<path fill-rule="evenodd" clip-rule="evenodd" fill="#FFFFFF" d="M19,5c-1.5,0-2.8,0.4-3.7,0.6L15,8c0.4-0.2,1.9-0.6,3.1-0.7
			c1.2,0,1.9,0.2,1.7,1.3c-3.6,0-6.1,0.8-6.6,3.1c-0.7,4.1,3.7,4,5.4,2.2l-0.2,1h3.3l1.4-6.5C23.7,5.6,21.2,4.9,19,5z M19.2,11.6
			c-0.2,0.9-0.9,1.2-1.7,1.3c-0.7,0-1.3-0.6-0.9-1.4c0.4-0.6,1.4-0.8,1.9-0.8c0.3,0,0.5,0,0.8,0C19.3,11.1,19.2,11.3,19.2,11.6z
			 M24.6,5.2h3.3l0.5,5.8l3.2-5.8H35L27.2,19h-3.7l2.4-4.1L24.6,5.2L24.6,5.2L24.6,5.2z M10.8,2.4H4.7L2,14.9h3.6l0.9-4.1H9
			c2.5,0,4.5-1.5,5-4.1C14.7,3.8,12.6,2.4,10.8,2.4z M10.7,6.7c-0.2,0.9-1.1,1.7-2,1.7H7L7.7,5h1.8C10.4,5,11,5.7,10.7,6.7z"/>
	</g>
	<g>
		<path fill-rule="evenodd" clip-rule="evenodd" fill="#5E5E5E" d="M19,4c-1.5,0-2.8,0.4-3.7,0.6L15,7c0.4-0.2,1.9-0.6,3.1-0.7
			c1.2,0,1.9,0.2,1.7,1.3c-3.6,0-6.1,0.8-6.6,3.1c-0.7,4.1,3.7,4,5.4,2.2l-0.2,1h3.3l1.4-6.5C23.7,4.6,21.2,3.9,19,4z M19.2,10.6
			c-0.2,0.9-0.9,1.2-1.7,1.3c-0.7,0-1.3-0.6-0.9-1.4C17,9.9,18,9.8,18.6,9.8c0.3,0,0.5,0,0.8,0C19.3,10.1,19.2,10.3,19.2,10.6z
			 M24.6,4.2h3.3l0.5,5.8l3.2-5.8H35L27.2,18h-3.7l2.4-4.1L24.6,4.2L24.6,4.2L24.6,4.2z M10.8,1.4H4.7L2,13.9h3.6l0.9-4.1H9
			c2.5,0,4.5-1.5,5-4.1C14.7,2.8,12.6,1.4,10.8,1.4z M10.7,5.7c-0.2,0.9-1.1,1.7-2,1.7H7L7.7,4h1.8C10.4,4,11,4.7,10.7,5.7z"/>
	</g>
</g>
<g>
	<g>
		<path fill-rule="evenodd" clip-rule="evenodd" fill="#FFFFFF" d="M50.9,5c-1.6,0-2.8,0.4-3.7,0.6L46.8,8c0.5-0.2,2-0.6,3.2-0.7
			c1.2,0,2,0.2,1.7,1.3c-3.7,0-6.2,0.8-6.7,3.1c-0.7,4.1,3.8,4,5.5,2.2l-0.2,1h3.3l1.4-6.5C55.7,5.6,53.2,4.9,50.9,5z M51.1,11.6
			c-0.2,0.9-0.9,1.2-1.7,1.3c-0.7,0-1.4-0.6-0.9-1.4c0.4-0.6,1.4-0.8,2-0.8c0.3,0,0.5,0,0.8,0C51.2,11.1,51.2,11.3,51.1,11.6z
			 M57.9,2.4L57.9,2.4h3.4l-2.7,12.5h-3.3L57.9,2.4L57.9,2.4z M42.6,2.4h-6.1l-2.7,12.4h3.5l0.9-4.1h2.5c2.5,0,4.5-1.5,5.1-4.1
			C46.5,3.8,44.4,2.4,42.6,2.4z M42.5,6.7c-0.2,0.9-1.2,1.7-2.1,1.7h-1.6L39.5,5h1.8C42.2,5,42.7,5.7,42.5,6.7z M62,4V2.5h-0.5V2.3
			h1.3v0.2h-0.6V4H62z M63,4V2.3h0.3l0.4,1.2c0,0.1,0.1,0.2,0.1,0.2c0-0.1,0-0.1,0.1-0.3l0.4-1.2h0.3V4h-0.2V2.6L63.9,4h-0.2
			l-0.5-1.4V4H63z"/>
	</g>
	<g>
		<path fill-rule="evenodd" clip-rule="evenodd" fill="#808080" d="M50.9,4c-1.6,0-2.8,0.4-3.7,0.6L46.8,7c0.5-0.2,2-0.6,3.2-0.7
			c1.2,0,2,0.2,1.7,1.3c-3.7,0-6.2,0.8-6.7,3.1c-0.7,4.1,3.8,4,5.5,2.2l-0.2,1h3.3l1.4-6.5C55.7,4.6,53.2,3.9,50.9,4z M51.1,10.6
			c-0.2,0.9-0.9,1.2-1.7,1.3c-0.7,0-1.4-0.6-0.9-1.4c0.4-0.6,1.4-0.8,2-0.8c0.3,0,0.5,0,0.8,0C51.2,10.1,51.2,10.3,51.1,10.6z
			 M57.9,1.4L57.9,1.4h3.4l-2.7,12.5h-3.3L57.9,1.4L57.9,1.4z M42.6,1.4h-6.1l-2.7,12.4h3.5l0.9-4.1h2.5c2.5,0,4.5-1.5,5.1-4.1
			C46.5,2.8,44.4,1.4,42.6,1.4z M42.5,5.7c-0.2,0.9-1.2,1.7-2.1,1.7h-1.6L39.5,4h1.8C42.2,4,42.7,4.7,42.5,5.7z M62,3V1.5h-0.5V1.3
			h1.3v0.2h-0.6V3H62z M63,3V1.3h0.3l0.4,1.2c0,0.1,0.1,0.2,0.1,0.2c0-0.1,0-0.1,0.1-0.3l0.4-1.2h0.3V3h-0.2V1.6L63.9,3h-0.2
			l-0.5-1.4V3H63z"/>
	</g>
</g>
<g>
</g>
<g>
</g>
<g>
</g>
<g>
</g>
<g>
</g>
<g>
</g>
<g>
</g>
<g>
</g>
<g>
</g>
<g>
</g>
<g>
</g>
<g>
</g>
<g>
</g>
<g>
</g>
<g>
</g>
<g>
</g>
<g>
</g>
<g>
</g>
<g>
</g>
<g>
</g>
</svg>
